<?xml version="1.0" encoding="UTF-8" standalone="no"?>
<svg
   xmlns:dc="http://purl.org/dc/elements/1.1/"
   xmlns:cc="http://creativecommons.org/ns#"
   xmlns:rdf="http://www.w3.org/1999/02/22-rdf-syntax-ns#"
   xmlns:svg="http://www.w3.org/2000/svg"
   xmlns="http://www.w3.org/2000/svg"
   xmlns:sodipodi="http://sodipodi.sourceforge.net/DTD/sodipodi-0.dtd"
   xmlns:inkscape="http://www.inkscape.org/namespaces/inkscape"
   inkscape:version="1.0rc1 (09960d6, 2020-04-09)"
   sodipodi:docname="summary.svg"
   version="1.1"
   width="512"
   viewBox="0 0 511.999 511.999"
   height="512"
   enable-background="new 0 0 511.999 511.999"
   id="Layer_1">
  <metadata
     id="metadata850">
    <rdf:RDF>
      <cc:Work
         rdf:about="">
        <dc:format>image/svg+xml</dc:format>
        <dc:type
           rdf:resource="http://purl.org/dc/dcmitype/StillImage" />
        <dc:title></dc:title>
      </cc:Work>
    </rdf:RDF>
  </metadata>
  <defs
     id="defs848" />
  <sodipodi:namedview
     inkscape:current-layer="Layer_1"
     inkscape:window-maximized="1"
     inkscape:window-y="23"
     inkscape:window-x="0"
     inkscape:cy="256"
     inkscape:cx="256"
     inkscape:zoom="1.1777344"
     showgrid="false"
     id="namedview846"
     inkscape:window-height="811"
     inkscape:window-width="1440"
     inkscape:pageshadow="2"
     inkscape:pageopacity="0"
     guidetolerance="10"
     gridtolerance="10"
     objecttolerance="10"
     borderopacity="1"
     bordercolor="#666666"
     pagecolor="#ffffff" />
  <g
     style="fill:#f5f5f5"
     id="g843">
    <path
       style="fill:#f5f5f5"
       id="path833"
       d="m436 0h-360c-8.284 0-15 6.716-15 15v481.999c0 8.284 6.716 15 15 15h360c8.284 0 15-6.716 15-15v-481.999c0-8.284-6.716-15-15-15zm-240.003 30h120.005v15c0 8.271-6.452 15-14.383 15h-91.239c-7.932 0-14.384-6.729-14.384-15v-15zm225.003 451.999h-330v-451.999h74.997v15c0 24.813 19.91 45 44.384 45h91.238c24.473 0 44.383-20.187 44.383-45v-15h74.998z" />
    <path
       style="fill:#f5f5f5"
       id="path835"
       d="m346 153.932c-8.284 0-15 6.716-15 15v55.068h-30v-31.78c0-8.284-6.716-15-15-15s-15 6.716-15 15v31.78h-30.001v-89.002c0-8.284-6.716-15-15-15s-15 6.716-15 15v89.002h-29.999v-16.89c0-8.284-6.716-15-15-15s-15 6.716-15 15v16.89h-15.002c-8.284 0-15 6.716-15 15s6.716 15 15 15h240.005c8.284 0 15-6.716 15-15s-6.716-15-15-15h-15.003v-55.068c0-8.284-6.716-15-15-15z" />
    <path
       style="fill:#f5f5f5"
       id="path837"
       d="m375.997 284h-239.998c-8.284 0-15 6.716-15 15s6.716 15 15 15h239.998c8.284 0 15-6.716 15-15s-6.716-15-15-15z" />
    <path
       style="fill:#f5f5f5"
       id="path839"
       d="m375.997 344h-239.998c-8.284 0-15 6.716-15 15s6.716 15 15 15h239.998c8.284 0 15-6.716 15-15s-6.716-15-15-15z" />
    <path
       style="fill:#f5f5f5"
       id="path841"
       d="m240.993 404h-104.994c-8.284 0-15 6.716-15 15s6.716 15 15 15h104.994c8.284 0 15-6.716 15-15s-6.716-15-15-15z" />
  </g>
</svg>
