<?xml version="1.0" encoding="UTF-8" standalone="no"?>
<svg
   xmlns:dc="http://purl.org/dc/elements/1.1/"
   xmlns:cc="http://creativecommons.org/ns#"
   xmlns:rdf="http://www.w3.org/1999/02/22-rdf-syntax-ns#"
   xmlns:svg="http://www.w3.org/2000/svg"
   xmlns="http://www.w3.org/2000/svg"
   xmlns:sodipodi="http://sodipodi.sourceforge.net/DTD/sodipodi-0.dtd"
   xmlns:inkscape="http://www.inkscape.org/namespaces/inkscape"
   inkscape:version="1.0rc1 (09960d6, 2020-04-09)"
   sodipodi:docname="code-annotation.svg"
   xml:space="preserve"
   style="enable-background:new 0 0 512 512;"
   viewBox="0 0 512 512"
   y="0px"
   x="0px"
   id="Capa_1"
   version="1.1"><metadata
   id="metadata888"><rdf:RDF><cc:Work
       rdf:about=""><dc:format>image/svg+xml</dc:format><dc:type
         rdf:resource="http://purl.org/dc/dcmitype/StillImage" /><dc:title></dc:title></cc:Work></rdf:RDF></metadata><defs
   id="defs886" /><sodipodi:namedview
   inkscape:current-layer="Capa_1"
   inkscape:window-maximized="1"
   inkscape:window-y="23"
   inkscape:window-x="0"
   inkscape:cy="396.30026"
   inkscape:cx="611.98262"
   inkscape:zoom="0.51464343"
   showgrid="false"
   id="namedview884"
   inkscape:window-height="811"
   inkscape:window-width="1440"
   inkscape:pageshadow="2"
   inkscape:pageopacity="0"
   guidetolerance="10"
   gridtolerance="10"
   objecttolerance="10"
   borderopacity="1"
   bordercolor="#666666"
   pagecolor="#ffffff" />

<g
   inkscape:export-ydpi="99.980003"
   inkscape:export-xdpi="99.980003"
   style="fill:#006400"
   id="g3498"><text
     xml:space="preserve"
     style="font-style:normal;font-weight:normal;font-size:106.66700000000000159px;line-height:1.25;font-family:sans-serif;fill:#006400;fill-opacity:1;stroke:none"
     x="14.535688"
     y="78.784576"
     id="text3431"><tspan
       sodipodi:role="line"
       id="tspan3429"
       x="14.535688"
       y="78.784576"
       style="font-style:normal;font-variant:normal;font-weight:normal;font-stretch:normal;font-family:Symbol;-inkscape-font-specification:Symbol;fill:#006400">&lt;/&gt; &lt;/&gt; &lt;/&gt;</tspan><tspan
       sodipodi:role="line"
       x="14.535688"
       y="221.30859"
       style="font-style:normal;font-variant:normal;font-weight:normal;font-stretch:normal;font-family:Symbol;-inkscape-font-specification:Symbol;fill:#006400"
       id="tspan3437" /></text><text
     id="text3457"
     y="184.19749"
     x="8.2797289"
     style="font-style:normal;font-weight:normal;font-size:106.66700000000000159px;line-height:1.25;font-family:sans-serif;fill:#006400;fill-opacity:1;stroke:none"
     xml:space="preserve"><tspan
       style="font-style:normal;font-variant:normal;font-weight:normal;font-stretch:normal;font-family:Symbol;-inkscape-font-specification:Symbol;fill:#006400"
       y="184.19749"
       x="8.2797289"
       id="tspan3453"
       sodipodi:role="line">&lt;/&gt; &lt;/&gt; &lt;/&gt;</tspan><tspan
       id="tspan3455"
       style="font-style:normal;font-variant:normal;font-weight:normal;font-stretch:normal;font-family:Symbol;-inkscape-font-specification:Symbol;fill:#006400"
       y="326.7215"
       x="8.2797289"
       sodipodi:role="line" /></text><text
     id="text3463"
     y="289.61041"
     x="14.535688"
     style="font-style:normal;font-weight:normal;font-size:106.66700000000000159px;line-height:1.25;font-family:sans-serif;fill:#006400;fill-opacity:1;stroke:none"
     xml:space="preserve"><tspan
       style="font-style:normal;font-variant:normal;font-weight:normal;font-stretch:normal;font-family:Symbol;-inkscape-font-specification:Symbol;fill:#006400"
       y="289.61041"
       x="14.535688"
       id="tspan3459"
       sodipodi:role="line">&lt;/&gt; &lt;/&gt; &lt;/&gt;</tspan><tspan
       id="tspan3461"
       style="font-style:normal;font-variant:normal;font-weight:normal;font-stretch:normal;font-family:Symbol;-inkscape-font-specification:Symbol;fill:#006400"
       y="432.13443"
       x="14.535688"
       sodipodi:role="line" /></text><text
     xml:space="preserve"
     style="font-style:normal;font-weight:normal;font-size:106.66700000000000159px;line-height:1.25;font-family:sans-serif;fill:#006400;fill-opacity:1;stroke:none"
     x="8.2797289"
     y="395.02332"
     id="text3469"><tspan
       sodipodi:role="line"
       id="tspan3465"
       x="8.2797289"
       y="395.02332"
       style="font-style:normal;font-variant:normal;font-weight:normal;font-stretch:normal;font-family:Symbol;-inkscape-font-specification:Symbol;fill:#006400">&lt;/&gt; &lt;/&gt; &lt;/&gt;</tspan><tspan
       sodipodi:role="line"
       x="8.2797289"
       y="537.54736"
       style="font-style:normal;font-variant:normal;font-weight:normal;font-stretch:normal;font-family:Symbol;-inkscape-font-specification:Symbol;fill:#006400"
       id="tspan3467" /></text><text
     xml:space="preserve"
     style="font-style:normal;font-weight:normal;font-size:106.66700000000000159px;line-height:1.25;font-family:sans-serif;fill:#006400;fill-opacity:1;stroke:none"
     x="14.535688"
     y="500.43622"
     id="text3475"><tspan
       sodipodi:role="line"
       id="tspan3471"
       x="14.535688"
       y="500.43622"
       style="font-style:normal;font-variant:normal;font-weight:normal;font-stretch:normal;font-family:Symbol;-inkscape-font-specification:Symbol;fill:#006400">&lt;/&gt; &lt;/&gt; &lt;/&gt;</tspan><tspan
       sodipodi:role="line"
       x="14.535688"
       y="642.96027"
       style="font-style:normal;font-variant:normal;font-weight:normal;font-stretch:normal;font-family:Symbol;-inkscape-font-specification:Symbol;fill:#006400"
       id="tspan3473" /></text></g><g
   inkscape:export-ydpi="99.980003"
   inkscape:export-xdpi="99.980003"
   id="g853">
</g>
<g
   inkscape:export-ydpi="99.980003"
   inkscape:export-xdpi="99.980003"
   id="g855">
</g>
<g
   inkscape:export-ydpi="99.980003"
   inkscape:export-xdpi="99.980003"
   id="g857">
</g>
<g
   inkscape:export-ydpi="99.980003"
   inkscape:export-xdpi="99.980003"
   id="g859">
</g>
<g
   inkscape:export-ydpi="99.980003"
   inkscape:export-xdpi="99.980003"
   id="g861">
</g>
<g
   inkscape:export-ydpi="99.980003"
   inkscape:export-xdpi="99.980003"
   id="g863">
</g>
<g
   inkscape:export-ydpi="99.980003"
   inkscape:export-xdpi="99.980003"
   id="g865">
</g>
<g
   inkscape:export-ydpi="99.980003"
   inkscape:export-xdpi="99.980003"
   id="g867">
</g>
<g
   inkscape:export-ydpi="99.980003"
   inkscape:export-xdpi="99.980003"
   id="g869">
</g>
<g
   inkscape:export-ydpi="99.980003"
   inkscape:export-xdpi="99.980003"
   id="g871">
</g>
<g
   inkscape:export-ydpi="99.980003"
   inkscape:export-xdpi="99.980003"
   id="g873">
</g>
<g
   inkscape:export-ydpi="99.980003"
   inkscape:export-xdpi="99.980003"
   id="g875">
</g>
<g
   inkscape:export-ydpi="99.980003"
   inkscape:export-xdpi="99.980003"
   id="g877">
</g>
<g
   inkscape:export-ydpi="99.980003"
   inkscape:export-xdpi="99.980003"
   id="g879">
</g>
<g
   inkscape:export-ydpi="99.980003"
   inkscape:export-xdpi="99.980003"
   id="g881">
</g>
<g
   inkscape:export-ydpi="99.980003"
   inkscape:export-xdpi="99.980003"
   transform="translate(-435.1935,-294.01072)"
   id="g2683" /><g
   inkscape:export-ydpi="99.980003"
   inkscape:export-xdpi="99.980003"
   transform="translate(-435.1935,-294.01072)"
   id="g2685" /><g
   inkscape:export-ydpi="99.980003"
   inkscape:export-xdpi="99.980003"
   transform="translate(-435.1935,-294.01072)"
   id="g2687" /><g
   inkscape:export-ydpi="99.980003"
   inkscape:export-xdpi="99.980003"
   transform="translate(-435.1935,-294.01072)"
   id="g2689" /><g
   inkscape:export-ydpi="99.980003"
   inkscape:export-xdpi="99.980003"
   transform="translate(-435.1935,-294.01072)"
   id="g2691" /><g
   inkscape:export-ydpi="99.980003"
   inkscape:export-xdpi="99.980003"
   transform="translate(-435.1935,-294.01072)"
   id="g2693" /><g
   inkscape:export-ydpi="99.980003"
   inkscape:export-xdpi="99.980003"
   transform="translate(-435.1935,-294.01072)"
   id="g2695" /><g
   inkscape:export-ydpi="99.980003"
   inkscape:export-xdpi="99.980003"
   transform="translate(-435.1935,-294.01072)"
   id="g2697" /><g
   inkscape:export-ydpi="99.980003"
   inkscape:export-xdpi="99.980003"
   transform="translate(-435.1935,-294.01072)"
   id="g2699" /><g
   inkscape:export-ydpi="99.980003"
   inkscape:export-xdpi="99.980003"
   transform="translate(-435.1935,-294.01072)"
   id="g2701" /><g
   inkscape:export-ydpi="99.980003"
   inkscape:export-xdpi="99.980003"
   transform="translate(-435.1935,-294.01072)"
   id="g2703" /><g
   inkscape:export-ydpi="99.980003"
   inkscape:export-xdpi="99.980003"
   transform="translate(-435.1935,-294.01072)"
   id="g2705" /><g
   inkscape:export-ydpi="99.980003"
   inkscape:export-xdpi="99.980003"
   transform="translate(-435.1935,-294.01072)"
   id="g2707" /><g
   inkscape:export-ydpi="99.980003"
   inkscape:export-xdpi="99.980003"
   transform="translate(-435.1935,-294.01072)"
   id="g2709" /><g
   inkscape:export-ydpi="99.980003"
   inkscape:export-xdpi="99.980003"
   transform="translate(-435.1935,-294.01072)"
   id="g2711" /><g
   inkscape:export-ydpi="99.980003"
   inkscape:export-xdpi="99.980003"
   id="g3446"><rect
     y="163.63968"
     x="59.347389"
     height="303.91846"
     width="300.72833"
     id="rect3441"
     style="fill:#ffffff;stroke-width:2.5112" /><path
     inkscape:connector-curvature="0"
     id="path3359"
     d="M 338.7968,485.32672 H 83.320778 c -21.562926,0 -39.103475,-17.54055 -39.103475,-39.10348 V 190.74721 c 0,-21.56293 17.540549,-39.10348 39.103475,-39.10348 H 338.7968 c 21.56293,0 39.10348,17.54055 39.10348,39.10348 v 255.47603 c 0,21.56293 -17.54055,39.10348 -39.10348,39.10348 z M 83.320778,177.71271 c -7.186797,0 -13.034488,5.8477 -13.034488,13.0345 v 255.47603 c 0,7.1868 5.847691,13.03449 13.034488,13.03449 H 338.7968 c 7.1868,0 13.0345,-5.84769 13.0345,-13.03449 V 190.74721 c 0,-7.1868 -5.8477,-13.0345 -13.0345,-13.0345 z M 325.0444,250.27817 305.6225,232.88526 185.07637,367.50969 115.11272,301.00322 97.152106,319.89559 186.58094,404.91002 Z m 0,0"
     style="color:#000000;font-style:normal;font-variant:normal;font-weight:normal;font-stretch:normal;font-size:medium;line-height:normal;font-family:sans-serif;font-variant-ligatures:normal;font-variant-position:normal;font-variant-caps:normal;font-variant-numeric:normal;font-variant-alternates:normal;font-variant-east-asian:normal;font-feature-settings:normal;font-variation-settings:normal;text-indent:0;text-align:start;text-decoration:none;text-decoration-line:none;text-decoration-style:solid;text-decoration-color:#000000;letter-spacing:normal;word-spacing:normal;text-transform:none;writing-mode:lr-tb;direction:ltr;text-orientation:mixed;dominant-baseline:auto;baseline-shift:baseline;text-anchor:start;white-space:normal;shape-padding:0;shape-margin:0;inline-size:0;clip-rule:nonzero;display:inline;overflow:visible;visibility:visible;isolation:auto;mix-blend-mode:normal;color-interpolation:sRGB;color-interpolation-filters:linearRGB;solid-color:#000000;solid-opacity:1;vector-effect:none;fill:#000000;fill-opacity:1;fill-rule:nonzero;stroke:none;stroke-width:0.651723;stroke-linecap:butt;stroke-linejoin:miter;stroke-miterlimit:4;stroke-dasharray:none;stroke-dashoffset:0;stroke-opacity:1;color-rendering:auto;image-rendering:auto;shape-rendering:auto;text-rendering:auto;enable-background:accumulate;stop-color:#000000" /><rect
     style="fill:#ffffff;stroke-width:2.02414"
     id="rect3423"
     width="248.48746"
     height="238.97034"
     x="83.349953"
     y="196.81969" /></g><path
   inkscape:export-ydpi="99.980003"
   inkscape:export-xdpi="99.980003"
   inkscape:connector-curvature="0"
   id="path3347"
   d="m 139.0894,311.89263 -24.04946,91.38795 89.78465,-32.06594 278.97373,-281.37868 8.01649,-26.454407 -10.43796,-28.20468 -24.83458,-9.472812 -25.65276,5.611543 -15.23132,8.016489 z"
   style="fill:#90ee90;stroke:#000000;stroke-width:0.75371999999999983px;stroke-linecap:butt;stroke-linejoin:miter;stroke-opacity:1" /><g
   inkscape:export-ydpi="99.980003"
   inkscape:export-xdpi="99.980003"
   transform="matrix(0.75371987,0,0,0.75371987,109.28871,21.349128)"
   id="g2681"><g
     id="g2679"><path
       inkscape:connector-curvature="0"
       d="M 493.669,18.346 C 481.837,6.515 466.107,0 449.376,0 432.645,0 416.915,6.516 405.084,18.346 L 40.922,382.509 c -0.216,0.216 -0.415,0.442 -0.601,0.675 -0.046,0.058 -0.086,0.119 -0.131,0.178 -0.139,0.183 -0.272,0.369 -0.393,0.561 -0.045,0.07 -0.084,0.143 -0.126,0.214 -0.112,0.19 -0.217,0.382 -0.313,0.578 -0.037,0.076 -0.073,0.154 -0.107,0.231 -0.09,0.202 -0.171,0.405 -0.244,0.612 -0.017,0.049 -0.041,0.095 -0.057,0.144 L 0.434,501.246 c -0.978,2.936 -0.215,6.172 1.974,8.361 1.557,1.557 3.645,2.393 5.778,2.393 0.864,0 1.736,-0.137 2.583,-0.419 l 115.544,-38.514 c 0.053,-0.017 0.102,-0.044 0.156,-0.062 0.199,-0.071 0.395,-0.149 0.59,-0.235 0.084,-0.037 0.167,-0.075 0.249,-0.115 0.19,-0.093 0.376,-0.194 0.56,-0.303 0.076,-0.045 0.154,-0.088 0.229,-0.135 0.187,-0.119 0.368,-0.248 0.547,-0.383 0.063,-0.048 0.129,-0.09 0.19,-0.139 0.232,-0.186 0.459,-0.385 0.674,-0.6 L 493.669,106.933 c 24.422,-24.426 24.422,-64.165 0,-88.587 z M 21.102,490.911 27.16,472.737 39.277,484.853 Z m 35.507,-11.835 -23.671,-23.671 17.332,-51.994 58.334,58.333 z m 67.12,-25.315 -26.961,-26.96 137.789,-137.789 c 3.191,-3.191 3.191,-8.364 0,-11.554 -3.192,-3.191 -8.364,-3.191 -11.555,0 L 85.215,415.245 58.255,388.286 356.941,89.599 383.902,116.56 246.112,254.348 c -3.191,3.191 -3.191,8.364 0,11.554 1.596,1.596 3.686,2.393 5.778,2.393 2.091,0 4.182,-0.797 5.778,-2.393 l 137.789,-137.788 26.959,26.96 z M 433.97,143.519 401.236,110.785 C 401.231,110.78 368.495,78.044 368.495,78.044 l 19.257,-19.257 65.475,65.475 z M 482.114,95.376 464.783,112.707 399.308,47.232 416.64,29.9 c 8.742,-8.743 20.369,-13.559 32.736,-13.559 12.368,0 23.993,4.816 32.737,13.56 8.744,8.744 13.56,20.371 13.56,32.737 0,12.366 -4.815,23.994 -13.559,32.738 z"
       id="path2677" /></g></g></svg>
