<?xml version="1.0" encoding="UTF-8" standalone="no"?>
<svg
   xmlns:dc="http://purl.org/dc/elements/1.1/"
   xmlns:cc="http://creativecommons.org/ns#"
   xmlns:rdf="http://www.w3.org/1999/02/22-rdf-syntax-ns#"
   xmlns:svg="http://www.w3.org/2000/svg"
   xmlns="http://www.w3.org/2000/svg"
   xmlns:sodipodi="http://sodipodi.sourceforge.net/DTD/sodipodi-0.dtd"
   xmlns:inkscape="http://www.inkscape.org/namespaces/inkscape"
   inkscape:version="1.0rc1 (09960d6, 2020-04-09)"
   sodipodi:docname="summary.svg"
   id="svg3352"
   version="1.1"
   height="16"
   width="16">
  <metadata
     id="metadata3358">
    <rdf:RDF>
      <cc:Work
         rdf:about="">
        <dc:format>image/svg+xml</dc:format>
        <dc:type
           rdf:resource="http://purl.org/dc/dcmitype/StillImage" />
        <dc:title></dc:title>
      </cc:Work>
    </rdf:RDF>
  </metadata>
  <defs
     id="defs3356" />
  <sodipodi:namedview
     inkscape:current-layer="svg3352"
     inkscape:window-maximized="1"
     inkscape:window-y="23"
     inkscape:window-x="0"
     inkscape:cy="8.4330256"
     inkscape:cx="7.6390566"
     inkscape:zoom="32.4299"
     showgrid="false"
     id="namedview3354"
     inkscape:window-height="811"
     inkscape:window-width="1440"
     inkscape:pageshadow="2"
     inkscape:pageopacity="0"
     guidetolerance="10"
     gridtolerance="10"
     objecttolerance="10"
     borderopacity="1"
     bordercolor="#666666"
     pagecolor="#ffffff" />
  <g
     transform="matrix(0.03063185,0,0,0.03063185,0.1582464,0.15826172)"
     style="fill:#696969"
     id="g843">
    <path
       inkscape:connector-curvature="0"
       style="fill:#696969"
       id="path833"
       d="M 436,0 H 76 C 67.716,0 61,6.716 61,15 v 481.999 c 0,8.284 6.716,15 15,15 h 360 c 8.284,0 15,-6.716 15,-15 V 15 C 451,6.716 444.284,0 436,0 Z M 195.997,30 h 120.005 v 15 c 0,8.271 -6.452,15 -14.383,15 H 210.38 c -7.932,0 -14.384,-6.729 -14.384,-15 V 30 Z M 421,481.999 H 91 V 30 h 74.997 v 15 c 0,24.813 19.91,45 44.384,45 h 91.238 c 24.473,0 44.383,-20.187 44.383,-45 V 30 H 421 Z" />
    <path
       inkscape:connector-curvature="0"
       style="fill:#696969"
       id="path835"
       d="m 346,153.932 c -8.284,0 -15,6.716 -15,15 V 224 h -30 v -31.78 c 0,-8.284 -6.716,-15 -15,-15 -8.284,0 -15,6.716 -15,15 V 224 h -30.001 v -89.002 c 0,-8.284 -6.716,-15 -15,-15 -8.284,0 -15,6.716 -15,15 V 224 H 181 v -16.89 c 0,-8.284 -6.716,-15 -15,-15 -8.284,0 -15,6.716 -15,15 V 224 h -15.002 c -8.284,0 -15,6.716 -15,15 0,8.284 6.716,15 15,15 h 240.005 c 8.284,0 15,-6.716 15,-15 0,-8.284 -6.716,-15 -15,-15 H 361 v -55.068 c 0,-8.284 -6.716,-15 -15,-15 z" />
    <path
       inkscape:connector-curvature="0"
       style="fill:#696969"
       id="path837"
       d="M 375.997,284 H 135.999 c -8.284,0 -15,6.716 -15,15 0,8.284 6.716,15 15,15 h 239.998 c 8.284,0 15,-6.716 15,-15 0,-8.284 -6.716,-15 -15,-15 z" />
    <path
       inkscape:connector-curvature="0"
       style="fill:#696969"
       id="path839"
       d="M 375.997,344 H 135.999 c -8.284,0 -15,6.716 -15,15 0,8.284 6.716,15 15,15 h 239.998 c 8.284,0 15,-6.716 15,-15 0,-8.284 -6.716,-15 -15,-15 z" />
    <path
       inkscape:connector-curvature="0"
       style="fill:#696969"
       id="path841"
       d="M 240.993,404 H 135.999 c -8.284,0 -15,6.716 -15,15 0,8.284 6.716,15 15,15 h 104.994 c 8.284,0 15,-6.716 15,-15 0,-8.284 -6.716,-15 -15,-15 z" />
  </g>
</svg>
